<svg xmlns="http://www.w3.org/2000/svg" width="1299" height="669" style="cursor: move;"><g transform="translate(81,53) scale(1)"><path class="link" marker-end="url(#arrow)" d="M485.5,-225.5, 628.5,20.5" style="stroke-width: 0.5; stroke-opacity: 1; stroke: rgb(255, 93, 93);"></path><path class="link" marker-end="url(#arrow)" d="M485.5,-225.5, 628.5,96.5" style="stroke-width: 0.5; stroke-opacity: 1; stroke: rgb(255, 175, 175);"></path><path class="link" marker-end="url(#arrow)" d="M485.5,-225.5, 628.5,172.5" style="stroke-width: 0.5; stroke-opacity: 1; stroke: rgb(255, 115, 115);"></path><path class="link" marker-end="url(#arrow)" d="M485.5,-225.5, 628.5,248.5" style="stroke-width: 0.5; stroke-opacity: 1; stroke: rgb(255, 119, 119);"></path><path class="link" marker-end="url(#arrow)" d="M485.5,-225.5, 628.5,324.5" style="stroke-width: 0.5; stroke-opacity: 1; stroke: rgb(255, 42, 42);"></path><path class="link" marker-end="url(#arrow)" d="M485.5,-225.5, 628.5,400.5" style="stroke-width: 0.5; stroke-opacity: 1; stroke: rgb(255, 170, 170);"></path><path class="link" marker-end="url(#arrow)" d="M485.5,-225.5, 628.5,476.5" style="stroke-width: 0.5; stroke-opacity: 1; stroke: rgb(52, 52, 255);"></path><path class="link" marker-end="url(#arrow)" d="M485.5,-225.5, 628.5,552.5" style="stroke-width: 0.5; stroke-opacity: 1; stroke: rgb(208, 208, 255);"></path><path class="link" marker-end="url(#arrow)" d="M485.5,-225.5, 628.5,628.5" style="stroke-width: 0.5; stroke-opacity: 1; stroke: rgb(128, 128, 255);"></path><path class="link" marker-end="url(#arrow)" d="M485.5,-225.5, 628.5,704.5" style="stroke-width: 0.5; stroke-opacity: 1; stroke: rgb(255, 92, 92);"></path><path class="link" marker-end="url(#arrow)" d="M485.5,-125.5, 628.5,20.5" style="stroke-width: 0.5; stroke-opacity: 1; stroke: rgb(157, 157, 255);"></path><path class="link" marker-end="url(#arrow)" d="M485.5,-125.5, 628.5,96.5" style="stroke-width: 0.5; stroke-opacity: 1; stroke: rgb(255, 165, 165);"></path><path class="link" marker-end="url(#arrow)" d="M485.5,-125.5, 628.5,172.5" style="stroke-width: 0.5; stroke-opacity: 1; stroke: rgb(255, 156, 156);"></path><path class="link" marker-end="url(#arrow)" d="M485.5,-125.5, 628.5,248.5" style="stroke-width: 0.5; stroke-opacity: 1; stroke: rgb(255, 221, 221);"></path><path class="link" marker-end="url(#arrow)" d="M485.5,-125.5, 628.5,324.5" style="stroke-width: 0.5; stroke-opacity: 1; stroke: rgb(178, 178, 255);"></path><path class="link" marker-end="url(#arrow)" d="M485.5,-125.5, 628.5,400.5" style="stroke-width: 0.5; stroke-opacity: 1; stroke: rgb(43, 43, 255);"></path><path class="link" marker-end="url(#arrow)" d="M485.5,-125.5, 628.5,476.5" style="stroke-width: 0.5; stroke-opacity: 1; stroke: rgb(20, 20, 255);"></path><path class="link" marker-end="url(#arrow)" d="M485.5,-125.5, 628.5,552.5" style="stroke-width: 0.5; stroke-opacity: 1; stroke: rgb(255, 93, 93);"></path><path class="link" marker-end="url(#arrow)" d="M485.5,-125.5, 628.5,628.5" style="stroke-width: 0.5; stroke-opacity: 1; stroke: rgb(132, 132, 255);"></path><path class="link" marker-end="url(#arrow)" d="M485.5,-125.5, 628.5,704.5" style="stroke-width: 0.5; stroke-opacity: 1; stroke: rgb(255, 242, 242);"></path><path class="link" marker-end="url(#arrow)" d="M485.5,-25.5, 628.5,20.5" style="stroke-width: 0.5; stroke-opacity: 1; stroke: rgb(255, 228, 228);"></path><path class="link" marker-end="url(#arrow)" d="M485.5,-25.5, 628.5,96.5" style="stroke-width: 0.5; stroke-opacity: 1; stroke: rgb(255, 138, 138);"></path><path class="link" marker-end="url(#arrow)" d="M485.5,-25.5, 628.5,172.5" style="stroke-width: 0.5; stroke-opacity: 1; stroke: rgb(255, 116, 116);"></path><path class="link" marker-end="url(#arrow)" d="M485.5,-25.5, 628.5,248.5" style="stroke-width: 0.5; stroke-opacity: 1; stroke: rgb(43, 43, 255);"></path><path class="link" marker-end="url(#arrow)" d="M485.5,-25.5, 628.5,324.5" style="stroke-width: 0.5; stroke-opacity: 1; stroke: rgb(255, 196, 196);"></path><path class="link" marker-end="url(#arrow)" d="M485.5,-25.5, 628.5,400.5" style="stroke-width: 0.5; stroke-opacity: 1; stroke: rgb(255, 53, 53);"></path><path class="link" marker-end="url(#arrow)" d="M485.5,-25.5, 628.5,476.5" style="stroke-width: 0.5; stroke-opacity: 1; stroke: rgb(220, 220, 255);"></path><path class="link" marker-end="url(#arrow)" d="M485.5,-25.5, 628.5,552.5" style="stroke-width: 0.5; stroke-opacity: 1; stroke: rgb(255, 143, 143);"></path><path class="link" marker-end="url(#arrow)" d="M485.5,-25.5, 628.5,628.5" style="stroke-width: 0.5; stroke-opacity: 1; stroke: rgb(255, 42, 42);"></path><path class="link" marker-end="url(#arrow)" d="M485.5,-25.5, 628.5,704.5" style="stroke-width: 0.5; stroke-opacity: 1; stroke: rgb(69, 69, 255);"></path><path class="link" marker-end="url(#arrow)" d="M485.5,74.5, 628.5,20.5" style="stroke-width: 0.5; stroke-opacity: 1; stroke: rgb(226, 226, 255);"></path><path class="link" marker-end="url(#arrow)" d="M485.5,74.5, 628.5,96.5" style="stroke-width: 0.5; stroke-opacity: 1; stroke: rgb(5, 5, 255);"></path><path class="link" marker-end="url(#arrow)" d="M485.5,74.5, 628.5,172.5" style="stroke-width: 0.5; stroke-opacity: 1; stroke: rgb(255, 216, 216);"></path><path class="link" marker-end="url(#arrow)" d="M485.5,74.5, 628.5,248.5" style="stroke-width: 0.5; stroke-opacity: 1; stroke: rgb(132, 132, 255);"></path><path class="link" marker-end="url(#arrow)" d="M485.5,74.5, 628.5,324.5" style="stroke-width: 0.5; stroke-opacity: 1; stroke: rgb(255, 117, 117);"></path><path class="link" marker-end="url(#arrow)" d="M485.5,74.5, 628.5,400.5" style="stroke-width: 0.5; stroke-opacity: 1; stroke: rgb(151, 151, 255);"></path><path class="link" marker-end="url(#arrow)" d="M485.5,74.5, 628.5,476.5" style="stroke-width: 0.5; stroke-opacity: 1; stroke: rgb(92, 92, 255);"></path><path class="link" marker-end="url(#arrow)" d="M485.5,74.5, 628.5,552.5" style="stroke-width: 0.5; stroke-opacity: 1; stroke: rgb(14, 14, 255);"></path><path class="link" marker-end="url(#arrow)" d="M485.5,74.5, 628.5,628.5" style="stroke-width: 0.5; stroke-opacity: 1; stroke: rgb(255, 193, 193);"></path><path class="link" marker-end="url(#arrow)" d="M485.5,74.5, 628.5,704.5" style="stroke-width: 0.5; stroke-opacity: 1; stroke: rgb(2, 2, 255);"></path><path class="link" marker-end="url(#arrow)" d="M485.5,174.5, 628.5,20.5" style="stroke-width: 0.5; stroke-opacity: 1; stroke: rgb(255, 134, 134);"></path><path class="link" marker-end="url(#arrow)" d="M485.5,174.5, 628.5,96.5" style="stroke-width: 0.5; stroke-opacity: 1; stroke: rgb(255, 109, 109);"></path><path class="link" marker-end="url(#arrow)" d="M485.5,174.5, 628.5,172.5" style="stroke-width: 0.5; stroke-opacity: 1; stroke: rgb(28, 28, 255);"></path><path class="link" marker-end="url(#arrow)" d="M485.5,174.5, 628.5,248.5" style="stroke-width: 0.5; stroke-opacity: 1; stroke: rgb(14, 14, 255);"></path><path class="link" marker-end="url(#arrow)" d="M485.5,174.5, 628.5,324.5" style="stroke-width: 0.5; stroke-opacity: 1; stroke: rgb(65, 65, 255);"></path><path class="link" marker-end="url(#arrow)" d="M485.5,174.5, 628.5,400.5" style="stroke-width: 0.5; stroke-opacity: 1; stroke: rgb(255, 41, 41);"></path><path class="link" marker-end="url(#arrow)" d="M485.5,174.5, 628.5,476.5" style="stroke-width: 0.5; stroke-opacity: 1; stroke: rgb(255, 30, 30);"></path><path class="link" marker-end="url(#arrow)" d="M485.5,174.5, 628.5,552.5" style="stroke-width: 0.5; stroke-opacity: 1; stroke: rgb(104, 104, 255);"></path><path class="link" marker-end="url(#arrow)" d="M485.5,174.5, 628.5,628.5" style="stroke-width: 0.5; stroke-opacity: 1; stroke: rgb(42, 42, 255);"></path><path class="link" marker-end="url(#arrow)" d="M485.5,174.5, 628.5,704.5" style="stroke-width: 0.5; stroke-opacity: 1; stroke: rgb(255, 26, 26);"></path><path class="link" marker-end="url(#arrow)" d="M485.5,274.5, 628.5,20.5" style="stroke-width: 0.5; stroke-opacity: 1; stroke: rgb(128, 128, 255);"></path><path class="link" marker-end="url(#arrow)" d="M485.5,274.5, 628.5,96.5" style="stroke-width: 0.5; stroke-opacity: 1; stroke: rgb(10, 10, 255);"></path><path class="link" marker-end="url(#arrow)" d="M485.5,274.5, 628.5,172.5" style="stroke-width: 0.5; stroke-opacity: 1; stroke: rgb(16, 16, 255);"></path><path class="link" marker-end="url(#arrow)" d="M485.5,274.5, 628.5,248.5" style="stroke-width: 0.5; stroke-opacity: 1; stroke: rgb(125, 125, 255);"></path><path class="link" marker-end="url(#arrow)" d="M485.5,274.5, 628.5,324.5" style="stroke-width: 0.5; stroke-opacity: 1; stroke: rgb(243, 243, 255);"></path><path class="link" marker-end="url(#arrow)" d="M485.5,274.5, 628.5,400.5" style="stroke-width: 0.5; stroke-opacity: 1; stroke: rgb(185, 185, 255);"></path><path class="link" marker-end="url(#arrow)" d="M485.5,274.5, 628.5,476.5" style="stroke-width: 0.5; stroke-opacity: 1; stroke: rgb(206, 206, 255);"></path><path class="link" marker-end="url(#arrow)" d="M485.5,274.5, 628.5,552.5" style="stroke-width: 0.5; stroke-opacity: 1; stroke: rgb(255, 34, 34);"></path><path class="link" marker-end="url(#arrow)" d="M485.5,274.5, 628.5,628.5" style="stroke-width: 0.5; stroke-opacity: 1; stroke: rgb(255, 15, 15);"></path><path class="link" marker-end="url(#arrow)" d="M485.5,274.5, 628.5,704.5" style="stroke-width: 0.5; stroke-opacity: 1; stroke: rgb(255, 137, 137);"></path><path class="link" marker-end="url(#arrow)" d="M485.5,374.5, 628.5,20.5" style="stroke-width: 0.5; stroke-opacity: 1; stroke: rgb(90, 90, 255);"></path><path class="link" marker-end="url(#arrow)" d="M485.5,374.5, 628.5,96.5" style="stroke-width: 0.5; stroke-opacity: 1; stroke: rgb(255, 187, 187);"></path><path class="link" marker-end="url(#arrow)" d="M485.5,374.5, 628.5,172.5" style="stroke-width: 0.5; stroke-opacity: 1; stroke: rgb(255, 186, 186);"></path><path class="link" marker-end="url(#arrow)" d="M485.5,374.5, 628.5,248.5" style="stroke-width: 0.5; stroke-opacity: 1; stroke: rgb(255, 64, 64);"></path><path class="link" marker-end="url(#arrow)" d="M485.5,374.5, 628.5,324.5" style="stroke-width: 0.5; stroke-opacity: 1; stroke: rgb(88, 88, 255);"></path><path class="link" marker-end="url(#arrow)" d="M485.5,374.5, 628.5,400.5" style="stroke-width: 0.5; stroke-opacity: 1; stroke: rgb(13, 13, 255);"></path><path class="link" marker-end="url(#arrow)" d="M485.5,374.5, 628.5,476.5" style="stroke-width: 0.5; stroke-opacity: 1; stroke: rgb(255, 39, 39);"></path><path class="link" marker-end="url(#arrow)" d="M485.5,374.5, 628.5,552.5" style="stroke-width: 0.5; stroke-opacity: 1; stroke: rgb(255, 146, 146);"></path><path class="link" marker-end="url(#arrow)" d="M485.5,374.5, 628.5,628.5" style="stroke-width: 0.5; stroke-opacity: 1; stroke: rgb(92, 92, 255);"></path><path class="link" marker-end="url(#arrow)" d="M485.5,374.5, 628.5,704.5" style="stroke-width: 0.5; stroke-opacity: 1; stroke: rgb(255, 106, 106);"></path><path class="link" marker-end="url(#arrow)" d="M485.5,474.5, 628.5,20.5" style="stroke-width: 0.5; stroke-opacity: 1; stroke: rgb(255, 102, 102);"></path><path class="link" marker-end="url(#arrow)" d="M485.5,474.5, 628.5,96.5" style="stroke-width: 0.5; stroke-opacity: 1; stroke: rgb(223, 223, 255);"></path><path class="link" marker-end="url(#arrow)" d="M485.5,474.5, 628.5,172.5" style="stroke-width: 0.5; stroke-opacity: 1; stroke: rgb(214, 214, 255);"></path><path class="link" marker-end="url(#arrow)" d="M485.5,474.5, 628.5,248.5" style="stroke-width: 0.5; stroke-opacity: 1; stroke: rgb(162, 162, 255);"></path><path class="link" marker-end="url(#arrow)" d="M485.5,474.5, 628.5,324.5" style="stroke-width: 0.5; stroke-opacity: 1; stroke: rgb(255, 7, 7);"></path><path class="link" marker-end="url(#arrow)" d="M485.5,474.5, 628.5,400.5" style="stroke-width: 0.5; stroke-opacity: 1; stroke: rgb(67, 67, 255);"></path><path class="link" marker-end="url(#arrow)" d="M485.5,474.5, 628.5,476.5" style="stroke-width: 0.5; stroke-opacity: 1; stroke: rgb(28, 28, 255);"></path><path class="link" marker-end="url(#arrow)" d="M485.5,474.5, 628.5,552.5" style="stroke-width: 0.5; stroke-opacity: 1; stroke: rgb(78, 78, 255);"></path><path class="link" marker-end="url(#arrow)" d="M485.5,474.5, 628.5,628.5" style="stroke-width: 0.5; stroke-opacity: 1; stroke: rgb(41, 41, 255);"></path><path class="link" marker-end="url(#arrow)" d="M485.5,474.5, 628.5,704.5" style="stroke-width: 0.5; stroke-opacity: 1; stroke: rgb(255, 37, 37);"></path><path class="link" marker-end="url(#arrow)" d="M485.5,574.5, 628.5,20.5" style="stroke-width: 0.5; stroke-opacity: 1; stroke: rgb(255, 27, 27);"></path><path class="link" marker-end="url(#arrow)" d="M485.5,574.5, 628.5,96.5" style="stroke-width: 0.5; stroke-opacity: 1; stroke: rgb(255, 92, 92);"></path><path class="link" marker-end="url(#arrow)" d="M485.5,574.5, 628.5,172.5" style="stroke-width: 0.5; stroke-opacity: 1; stroke: rgb(255, 175, 175);"></path><path class="link" marker-end="url(#arrow)" d="M485.5,574.5, 628.5,248.5" style="stroke-width: 0.5; stroke-opacity: 1; stroke: rgb(147, 147, 255);"></path><path class="link" marker-end="url(#arrow)" d="M485.5,574.5, 628.5,324.5" style="stroke-width: 0.5; stroke-opacity: 1; stroke: rgb(247, 247, 255);"></path><path class="link" marker-end="url(#arrow)" d="M485.5,574.5, 628.5,400.5" style="stroke-width: 0.5; stroke-opacity: 1; stroke: rgb(255, 211, 211);"></path><path class="link" marker-end="url(#arrow)" d="M485.5,574.5, 628.5,476.5" style="stroke-width: 0.5; stroke-opacity: 1; stroke: rgb(255, 144, 144);"></path><path class="link" marker-end="url(#arrow)" d="M485.5,574.5, 628.5,552.5" style="stroke-width: 0.5; stroke-opacity: 1; stroke: rgb(68, 68, 255);"></path><path class="link" marker-end="url(#arrow)" d="M485.5,574.5, 628.5,628.5" style="stroke-width: 0.5; stroke-opacity: 1; stroke: rgb(213, 213, 255);"></path><path class="link" marker-end="url(#arrow)" d="M485.5,574.5, 628.5,704.5" style="stroke-width: 0.5; stroke-opacity: 1; stroke: rgb(37, 37, 255);"></path><path class="link" marker-end="url(#arrow)" d="M485.5,674.5, 628.5,20.5" style="stroke-width: 0.5; stroke-opacity: 1; stroke: rgb(255, 146, 146);"></path><path class="link" marker-end="url(#arrow)" d="M485.5,674.5, 628.5,96.5" style="stroke-width: 0.5; stroke-opacity: 1; stroke: rgb(255, 69, 69);"></path><path class="link" marker-end="url(#arrow)" d="M485.5,674.5, 628.5,172.5" style="stroke-width: 0.5; stroke-opacity: 1; stroke: rgb(255, 148, 148);"></path><path class="link" marker-end="url(#arrow)" d="M485.5,674.5, 628.5,248.5" style="stroke-width: 0.5; stroke-opacity: 1; stroke: rgb(255, 28, 28);"></path><path class="link" marker-end="url(#arrow)" d="M485.5,674.5, 628.5,324.5" style="stroke-width: 0.5; stroke-opacity: 1; stroke: rgb(23, 23, 255);"></path><path class="link" marker-end="url(#arrow)" d="M485.5,674.5, 628.5,400.5" style="stroke-width: 0.5; stroke-opacity: 1; stroke: rgb(248, 248, 255);"></path><path class="link" marker-end="url(#arrow)" d="M485.5,674.5, 628.5,476.5" style="stroke-width: 0.5; stroke-opacity: 1; stroke: rgb(255, 254, 254);"></path><path class="link" marker-end="url(#arrow)" d="M485.5,674.5, 628.5,552.5" style="stroke-width: 0.5; stroke-opacity: 1; stroke: rgb(255, 140, 140);"></path><path class="link" marker-end="url(#arrow)" d="M485.5,674.5, 628.5,628.5" style="stroke-width: 0.5; stroke-opacity: 1; stroke: rgb(255, 71, 71);"></path><path class="link" marker-end="url(#arrow)" d="M485.5,674.5, 628.5,704.5" style="stroke-width: 0.5; stroke-opacity: 1; stroke: rgb(145, 145, 255);"></path><path class="link" marker-end="url(#arrow)" d="M485.5,774.5, 628.5,20.5" style="stroke-width: 0.5; stroke-opacity: 1; stroke: rgb(255, 151, 151);"></path><path class="link" marker-end="url(#arrow)" d="M485.5,774.5, 628.5,96.5" style="stroke-width: 0.5; stroke-opacity: 1; stroke: rgb(77, 77, 255);"></path><path class="link" marker-end="url(#arrow)" d="M485.5,774.5, 628.5,172.5" style="stroke-width: 0.5; stroke-opacity: 1; stroke: rgb(255, 237, 237);"></path><path class="link" marker-end="url(#arrow)" d="M485.5,774.5, 628.5,248.5" style="stroke-width: 0.5; stroke-opacity: 1; stroke: rgb(111, 111, 255);"></path><path class="link" marker-end="url(#arrow)" d="M485.5,774.5, 628.5,324.5" style="stroke-width: 0.5; stroke-opacity: 1; stroke: rgb(22, 22, 255);"></path><path class="link" marker-end="url(#arrow)" d="M485.5,774.5, 628.5,400.5" style="stroke-width: 0.5; stroke-opacity: 1; stroke: rgb(201, 201, 255);"></path><path class="link" marker-end="url(#arrow)" d="M485.5,774.5, 628.5,476.5" style="stroke-width: 0.5; stroke-opacity: 1; stroke: rgb(248, 248, 255);"></path><path class="link" marker-end="url(#arrow)" d="M485.5,774.5, 628.5,552.5" style="stroke-width: 0.5; stroke-opacity: 1; stroke: rgb(255, 248, 248);"></path><path class="link" marker-end="url(#arrow)" d="M485.5,774.5, 628.5,628.5" style="stroke-width: 0.5; stroke-opacity: 1; stroke: rgb(255, 193, 193);"></path><path class="link" marker-end="url(#arrow)" d="M485.5,774.5, 628.5,704.5" style="stroke-width: 0.5; stroke-opacity: 1; stroke: rgb(255, 214, 214);"></path><path class="link" marker-end="url(#arrow)" d="M485.5,874.5, 628.5,20.5" style="stroke-width: 0.5; stroke-opacity: 1; stroke: rgb(198, 198, 255);"></path><path class="link" marker-end="url(#arrow)" d="M485.5,874.5, 628.5,96.5" style="stroke-width: 0.5; stroke-opacity: 1; stroke: rgb(218, 218, 255);"></path><path class="link" marker-end="url(#arrow)" d="M485.5,874.5, 628.5,172.5" style="stroke-width: 0.5; stroke-opacity: 1; stroke: rgb(197, 197, 255);"></path><path class="link" marker-end="url(#arrow)" d="M485.5,874.5, 628.5,248.5" style="stroke-width: 0.5; stroke-opacity: 1; stroke: rgb(42, 42, 255);"></path><path class="link" marker-end="url(#arrow)" d="M485.5,874.5, 628.5,324.5" style="stroke-width: 0.5; stroke-opacity: 1; stroke: rgb(116, 116, 255);"></path><path class="link" marker-end="url(#arrow)" d="M485.5,874.5, 628.5,400.5" style="stroke-width: 0.5; stroke-opacity: 1; stroke: rgb(255, 100, 100);"></path><path class="link" marker-end="url(#arrow)" d="M485.5,874.5, 628.5,476.5" style="stroke-width: 0.5; stroke-opacity: 1; stroke: rgb(255, 138, 138);"></path><path class="link" marker-end="url(#arrow)" d="M485.5,874.5, 628.5,552.5" style="stroke-width: 0.5; stroke-opacity: 1; stroke: rgb(254, 254, 255);"></path><path class="link" marker-end="url(#arrow)" d="M485.5,874.5, 628.5,628.5" style="stroke-width: 0.5; stroke-opacity: 1; stroke: rgb(75, 75, 255);"></path><path class="link" marker-end="url(#arrow)" d="M485.5,874.5, 628.5,704.5" style="stroke-width: 0.5; stroke-opacity: 1; stroke: rgb(187, 187, 255);"></path><path class="link" marker-end="url(#arrow)" d="M628.5,-55.5, 771.5,139.5" style="stroke-width: 0.5; stroke-opacity: 1; stroke: rgb(255, 82, 82);"></path><path class="link" marker-end="url(#arrow)" d="M628.5,-55.5, 771.5,213.5" style="stroke-width: 0.5; stroke-opacity: 1; stroke: rgb(255, 236, 236);"></path><path class="link" marker-end="url(#arrow)" d="M628.5,-55.5, 771.5,287.5" style="stroke-width: 0.5; stroke-opacity: 1; stroke: rgb(7, 7, 255);"></path><path class="link" marker-end="url(#arrow)" d="M628.5,-55.5, 771.5,361.5" style="stroke-width: 0.5; stroke-opacity: 1; stroke: rgb(239, 239, 255);"></path><path class="link" marker-end="url(#arrow)" d="M628.5,-55.5, 771.5,435.5" style="stroke-width: 0.5; stroke-opacity: 1; stroke: rgb(198, 198, 255);"></path><path class="link" marker-end="url(#arrow)" d="M628.5,-55.5, 771.5,509.5" style="stroke-width: 0.5; stroke-opacity: 1; stroke: rgb(255, 150, 150);"></path><path class="link" marker-end="url(#arrow)" d="M628.5,-55.5, 771.5,583.5" style="stroke-width: 0.5; stroke-opacity: 1; stroke: rgb(10, 10, 255);"></path><path class="link" marker-end="url(#arrow)" d="M628.5,20.5, 771.5,139.5" style="stroke-width: 0.5; stroke-opacity: 1; stroke: rgb(181, 181, 255);"></path><path class="link" marker-end="url(#arrow)" d="M628.5,20.5, 771.5,213.5" style="stroke-width: 0.5; stroke-opacity: 1; stroke: rgb(255, 32, 32);"></path><path class="link" marker-end="url(#arrow)" d="M628.5,20.5, 771.5,287.5" style="stroke-width: 0.5; stroke-opacity: 1; stroke: rgb(192, 192, 255);"></path><path class="link" marker-end="url(#arrow)" d="M628.5,20.5, 771.5,361.5" style="stroke-width: 0.5; stroke-opacity: 1; stroke: rgb(111, 111, 255);"></path><path class="link" marker-end="url(#arrow)" d="M628.5,20.5, 771.5,435.5" style="stroke-width: 0.5; stroke-opacity: 1; stroke: rgb(220, 220, 255);"></path><path class="link" marker-end="url(#arrow)" d="M628.5,20.5, 771.5,509.5" style="stroke-width: 0.5; stroke-opacity: 1; stroke: rgb(96, 96, 255);"></path><path class="link" marker-end="url(#arrow)" d="M628.5,20.5, 771.5,583.5" style="stroke-width: 0.5; stroke-opacity: 1; stroke: rgb(174, 174, 255);"></path><path class="link" marker-end="url(#arrow)" d="M628.5,96.5, 771.5,139.5" style="stroke-width: 0.5; stroke-opacity: 1; stroke: rgb(255, 237, 237);"></path><path class="link" marker-end="url(#arrow)" d="M628.5,96.5, 771.5,213.5" style="stroke-width: 0.5; stroke-opacity: 1; stroke: rgb(255, 78, 78);"></path><path class="link" marker-end="url(#arrow)" d="M628.5,96.5, 771.5,287.5" style="stroke-width: 0.5; stroke-opacity: 1; stroke: rgb(50, 50, 255);"></path><path class="link" marker-end="url(#arrow)" d="M628.5,96.5, 771.5,361.5" style="stroke-width: 0.5; stroke-opacity: 1; stroke: rgb(255, 143, 143);"></path><path class="link" marker-end="url(#arrow)" d="M628.5,96.5, 771.5,435.5" style="stroke-width: 0.5; stroke-opacity: 1; stroke: rgb(79, 79, 255);"></path><path class="link" marker-end="url(#arrow)" d="M628.5,96.5, 771.5,509.5" style="stroke-width: 0.5; stroke-opacity: 1; stroke: rgb(91, 91, 255);"></path><path class="link" marker-end="url(#arrow)" d="M628.5,96.5, 771.5,583.5" style="stroke-width: 0.5; stroke-opacity: 1; stroke: rgb(62, 62, 255);"></path><path class="link" marker-end="url(#arrow)" d="M628.5,172.5, 771.5,139.5" style="stroke-width: 0.5; stroke-opacity: 1; stroke: rgb(255, 114, 114);"></path><path class="link" marker-end="url(#arrow)" d="M628.5,172.5, 771.5,213.5" style="stroke-width: 0.5; stroke-opacity: 1; stroke: rgb(13, 13, 255);"></path><path class="link" marker-end="url(#arrow)" d="M628.5,172.5, 771.5,287.5" style="stroke-width: 0.5; stroke-opacity: 1; stroke: rgb(255, 226, 226);"></path><path class="link" marker-end="url(#arrow)" d="M628.5,172.5, 771.5,361.5" style="stroke-width: 0.5; stroke-opacity: 1; stroke: rgb(184, 184, 255);"></path><path class="link" marker-end="url(#arrow)" d="M628.5,172.5, 771.5,435.5" style="stroke-width: 0.5; stroke-opacity: 1; stroke: rgb(255, 37, 37);"></path><path class="link" marker-end="url(#arrow)" d="M628.5,172.5, 771.5,509.5" style="stroke-width: 0.5; stroke-opacity: 1; stroke: rgb(255, 177, 177);"></path><path class="link" marker-end="url(#arrow)" d="M628.5,172.5, 771.5,583.5" style="stroke-width: 0.5; stroke-opacity: 1; stroke: rgb(255, 200, 200);"></path><path class="link" marker-end="url(#arrow)" d="M628.5,248.5, 771.5,139.5" style="stroke-width: 0.5; stroke-opacity: 1; stroke: rgb(255, 255, 255);"></path><path class="link" marker-end="url(#arrow)" d="M628.5,248.5, 771.5,213.5" style="stroke-width: 0.5; stroke-opacity: 1; stroke: rgb(87, 87, 255);"></path><path class="link" marker-end="url(#arrow)" d="M628.5,248.5, 771.5,287.5" style="stroke-width: 0.5; stroke-opacity: 1; stroke: rgb(107, 107, 255);"></path><path class="link" marker-end="url(#arrow)" d="M628.5,248.5, 771.5,361.5" style="stroke-width: 0.5; stroke-opacity: 1; stroke: rgb(255, 154, 154);"></path><path class="link" marker-end="url(#arrow)" d="M628.5,248.5, 771.5,435.5" style="stroke-width: 0.5; stroke-opacity: 1; stroke: rgb(152, 152, 255);"></path><path class="link" marker-end="url(#arrow)" d="M628.5,248.5, 771.5,509.5" style="stroke-width: 0.5; stroke-opacity: 1; stroke: rgb(19, 19, 255);"></path><path class="link" marker-end="url(#arrow)" d="M628.5,248.5, 771.5,583.5" style="stroke-width: 0.5; stroke-opacity: 1; stroke: rgb(129, 129, 255);"></path><path class="link" marker-end="url(#arrow)" d="M628.5,324.5, 771.5,139.5" style="stroke-width: 0.5; stroke-opacity: 1; stroke: rgb(98, 98, 255);"></path><path class="link" marker-end="url(#arrow)" d="M628.5,324.5, 771.5,213.5" style="stroke-width: 0.5; stroke-opacity: 1; stroke: rgb(14, 14, 255);"></path><path class="link" marker-end="url(#arrow)" d="M628.5,324.5, 771.5,287.5" style="stroke-width: 0.5; stroke-opacity: 1; stroke: rgb(228, 228, 255);"></path><path class="link" marker-end="url(#arrow)" d="M628.5,324.5, 771.5,361.5" style="stroke-width: 0.5; stroke-opacity: 1; stroke: rgb(116, 116, 255);"></path><path class="link" marker-end="url(#arrow)" d="M628.5,324.5, 771.5,435.5" style="stroke-width: 0.5; stroke-opacity: 1; stroke: rgb(255, 168, 168);"></path><path class="link" marker-end="url(#arrow)" d="M628.5,324.5, 771.5,509.5" style="stroke-width: 0.5; stroke-opacity: 1; stroke: rgb(255, 67, 67);"></path><path class="link" marker-end="url(#arrow)" d="M628.5,324.5, 771.5,583.5" style="stroke-width: 0.5; stroke-opacity: 1; stroke: rgb(255, 98, 98);"></path><path class="link" marker-end="url(#arrow)" d="M628.5,400.5, 771.5,139.5" style="stroke-width: 0.5; stroke-opacity: 1; stroke: rgb(46, 46, 255);"></path><path class="link" marker-end="url(#arrow)" d="M628.5,400.5, 771.5,213.5" style="stroke-width: 0.5; stroke-opacity: 1; stroke: rgb(255, 6, 6);"></path><path class="link" marker-end="url(#arrow)" d="M628.5,400.5, 771.5,287.5" style="stroke-width: 0.5; stroke-opacity: 1; stroke: rgb(255, 78, 78);"></path><path class="link" marker-end="url(#arrow)" d="M628.5,400.5, 771.5,361.5" style="stroke-width: 0.5; stroke-opacity: 1; stroke: rgb(217, 217, 255);"></path><path class="link" marker-end="url(#arrow)" d="M628.5,400.5, 771.5,435.5" style="stroke-width: 0.5; stroke-opacity: 1; stroke: rgb(255, 128, 128);"></path><path class="link" marker-end="url(#arrow)" d="M628.5,400.5, 771.5,509.5" style="stroke-width: 0.5; stroke-opacity: 1; stroke: rgb(255, 125, 125);"></path><path class="link" marker-end="url(#arrow)" d="M628.5,400.5, 771.5,583.5" style="stroke-width: 0.5; stroke-opacity: 1; stroke: rgb(32, 32, 255);"></path><path class="link" marker-end="url(#arrow)" d="M628.5,476.5, 771.5,139.5" style="stroke-width: 0.5; stroke-opacity: 1; stroke: rgb(49, 49, 255);"></path><path class="link" marker-end="url(#arrow)" d="M628.5,476.5, 771.5,213.5" style="stroke-width: 0.5; stroke-opacity: 1; stroke: rgb(174, 174, 255);"></path><path class="link" marker-end="url(#arrow)" d="M628.5,476.5, 771.5,287.5" style="stroke-width: 0.5; stroke-opacity: 1; stroke: rgb(186, 186, 255);"></path><path class="link" marker-end="url(#arrow)" d="M628.5,476.5, 771.5,361.5" style="stroke-width: 0.5; stroke-opacity: 1; stroke: rgb(128, 128, 255);"></path><path class="link" marker-end="url(#arrow)" d="M628.5,476.5, 771.5,435.5" style="stroke-width: 0.5; stroke-opacity: 1; stroke: rgb(250, 250, 255);"></path><path class="link" marker-end="url(#arrow)" d="M628.5,476.5, 771.5,509.5" style="stroke-width: 0.5; stroke-opacity: 1; stroke: rgb(255, 198, 198);"></path><path class="link" marker-end="url(#arrow)" d="M628.5,476.5, 771.5,583.5" style="stroke-width: 0.5; stroke-opacity: 1; stroke: rgb(255, 249, 249);"></path><path class="link" marker-end="url(#arrow)" d="M628.5,552.5, 771.5,139.5" style="stroke-width: 0.5; stroke-opacity: 1; stroke: rgb(130, 130, 255);"></path><path class="link" marker-end="url(#arrow)" d="M628.5,552.5, 771.5,213.5" style="stroke-width: 0.5; stroke-opacity: 1; stroke: rgb(58, 58, 255);"></path><path class="link" marker-end="url(#arrow)" d="M628.5,552.5, 771.5,287.5" style="stroke-width: 0.5; stroke-opacity: 1; stroke: rgb(249, 249, 255);"></path><path class="link" marker-end="url(#arrow)" d="M628.5,552.5, 771.5,361.5" style="stroke-width: 0.5; stroke-opacity: 1; stroke: rgb(255, 89, 89);"></path><path class="link" marker-end="url(#arrow)" d="M628.5,552.5, 771.5,435.5" style="stroke-width: 0.5; stroke-opacity: 1; stroke: rgb(17, 17, 255);"></path><path class="link" marker-end="url(#arrow)" d="M628.5,552.5, 771.5,509.5" style="stroke-width: 0.5; stroke-opacity: 1; stroke: rgb(158, 158, 255);"></path><path class="link" marker-end="url(#arrow)" d="M628.5,552.5, 771.5,583.5" style="stroke-width: 0.5; stroke-opacity: 1; stroke: rgb(35, 35, 255);"></path><path class="link" marker-end="url(#arrow)" d="M628.5,628.5, 771.5,139.5" style="stroke-width: 0.5; stroke-opacity: 1; stroke: rgb(255, 29, 29);"></path><path class="link" marker-end="url(#arrow)" d="M628.5,628.5, 771.5,213.5" style="stroke-width: 0.5; stroke-opacity: 1; stroke: rgb(245, 245, 255);"></path><path class="link" marker-end="url(#arrow)" d="M628.5,628.5, 771.5,287.5" style="stroke-width: 0.5; stroke-opacity: 1; stroke: rgb(255, 197, 197);"></path><path class="link" marker-end="url(#arrow)" d="M628.5,628.5, 771.5,361.5" style="stroke-width: 0.5; stroke-opacity: 1; stroke: rgb(255, 109, 109);"></path><path class="link" marker-end="url(#arrow)" d="M628.5,628.5, 771.5,435.5" style="stroke-width: 0.5; stroke-opacity: 1; stroke: rgb(255, 186, 186);"></path><path class="link" marker-end="url(#arrow)" d="M628.5,628.5, 771.5,509.5" style="stroke-width: 0.5; stroke-opacity: 1; stroke: rgb(229, 229, 255);"></path><path class="link" marker-end="url(#arrow)" d="M628.5,628.5, 771.5,583.5" style="stroke-width: 0.5; stroke-opacity: 1; stroke: rgb(147, 147, 255);"></path><path class="link" marker-end="url(#arrow)" d="M628.5,704.5, 771.5,139.5" style="stroke-width: 0.5; stroke-opacity: 1; stroke: rgb(255, 214, 214);"></path><path class="link" marker-end="url(#arrow)" d="M628.5,704.5, 771.5,213.5" style="stroke-width: 0.5; stroke-opacity: 1; stroke: rgb(65, 65, 255);"></path><path class="link" marker-end="url(#arrow)" d="M628.5,704.5, 771.5,287.5" style="stroke-width: 0.5; stroke-opacity: 1; stroke: rgb(255, 8, 8);"></path><path class="link" marker-end="url(#arrow)" d="M628.5,704.5, 771.5,361.5" style="stroke-width: 0.5; stroke-opacity: 1; stroke: rgb(98, 98, 255);"></path><path class="link" marker-end="url(#arrow)" d="M628.5,704.5, 771.5,435.5" style="stroke-width: 0.5; stroke-opacity: 1; stroke: rgb(255, 202, 202);"></path><path class="link" marker-end="url(#arrow)" d="M628.5,704.5, 771.5,509.5" style="stroke-width: 0.5; stroke-opacity: 1; stroke: rgb(46, 46, 255);"></path><path class="link" marker-end="url(#arrow)" d="M628.5,704.5, 771.5,583.5" style="stroke-width: 0.5; stroke-opacity: 1; stroke: rgb(255, 83, 83);"></path><path class="link" marker-end="url(#arrow)" d="M771.5,65.5, 914.5,244.5" style="stroke-width: 0.5; stroke-opacity: 1; stroke: rgb(40, 40, 255);"></path><path class="link" marker-end="url(#arrow)" d="M771.5,139.5, 914.5,244.5" style="stroke-width: 0.5; stroke-opacity: 1; stroke: rgb(255, 195, 195);"></path><path class="link" marker-end="url(#arrow)" d="M771.5,213.5, 914.5,244.5" style="stroke-width: 0.5; stroke-opacity: 1; stroke: rgb(255, 230, 230);"></path><path class="link" marker-end="url(#arrow)" d="M771.5,287.5, 914.5,244.5" style="stroke-width: 0.5; stroke-opacity: 1; stroke: rgb(255, 182, 182);"></path><path class="link" marker-end="url(#arrow)" d="M771.5,361.5, 914.5,244.5" style="stroke-width: 0.5; stroke-opacity: 1; stroke: rgb(198, 198, 255);"></path><path class="link" marker-end="url(#arrow)" d="M771.5,435.5, 914.5,244.5" style="stroke-width: 0.5; stroke-opacity: 1; stroke: rgb(97, 97, 255);"></path><path class="link" marker-end="url(#arrow)" d="M771.5,509.5, 914.5,244.5" style="stroke-width: 0.5; stroke-opacity: 1; stroke: rgb(71, 71, 255);"></path><path class="link" marker-end="url(#arrow)" d="M771.5,583.5, 914.5,244.5" style="stroke-width: 0.5; stroke-opacity: 1; stroke: rgb(56, 56, 255);"></path><path class="link" marker-end="url(#arrow)" d="M771.5,65.5, 914.5,284.5" style="stroke-width: 0.5; stroke-opacity: 1; stroke: rgb(191, 191, 255);"></path><path class="link" marker-end="url(#arrow)" d="M771.5,139.5, 914.5,284.5" style="stroke-width: 0.5; stroke-opacity: 1; stroke: rgb(150, 150, 255);"></path><path class="link" marker-end="url(#arrow)" d="M771.5,213.5, 914.5,284.5" style="stroke-width: 0.5; stroke-opacity: 1; stroke: rgb(219, 219, 255);"></path><path class="link" marker-end="url(#arrow)" d="M771.5,287.5, 914.5,284.5" style="stroke-width: 0.5; stroke-opacity: 1; stroke: rgb(255, 78, 78);"></path><path class="link" marker-end="url(#arrow)" d="M771.5,361.5, 914.5,284.5" style="stroke-width: 0.5; stroke-opacity: 1; stroke: rgb(67, 67, 255);"></path><path class="link" marker-end="url(#arrow)" d="M771.5,435.5, 914.5,284.5" style="stroke-width: 0.5; stroke-opacity: 1; stroke: rgb(255, 172, 172);"></path><path class="link" marker-end="url(#arrow)" d="M771.5,509.5, 914.5,284.5" style="stroke-width: 0.5; stroke-opacity: 1; stroke: rgb(124, 124, 255);"></path><path class="link" marker-end="url(#arrow)" d="M771.5,583.5, 914.5,284.5" style="stroke-width: 0.5; stroke-opacity: 1; stroke: rgb(255, 139, 139);"></path><path class="link" marker-end="url(#arrow)" d="M771.5,65.5, 914.5,324.5" style="stroke-width: 0.5; stroke-opacity: 1; stroke: rgb(255, 48, 48);"></path><path class="link" marker-end="url(#arrow)" d="M771.5,139.5, 914.5,324.5" style="stroke-width: 0.5; stroke-opacity: 1; stroke: rgb(71, 71, 255);"></path><path class="link" marker-end="url(#arrow)" d="M771.5,213.5, 914.5,324.5" style="stroke-width: 0.5; stroke-opacity: 1; stroke: rgb(255, 40, 40);"></path><path class="link" marker-end="url(#arrow)" d="M771.5,287.5, 914.5,324.5" style="stroke-width: 0.5; stroke-opacity: 1; stroke: rgb(182, 182, 255);"></path><path class="link" marker-end="url(#arrow)" d="M771.5,361.5, 914.5,324.5" style="stroke-width: 0.5; stroke-opacity: 1; stroke: rgb(56, 56, 255);"></path><path class="link" marker-end="url(#arrow)" d="M771.5,435.5, 914.5,324.5" style="stroke-width: 0.5; stroke-opacity: 1; stroke: rgb(127, 127, 255);"></path><path class="link" marker-end="url(#arrow)" d="M771.5,509.5, 914.5,324.5" style="stroke-width: 0.5; stroke-opacity: 1; stroke: rgb(140, 140, 255);"></path><path class="link" marker-end="url(#arrow)" d="M771.5,583.5, 914.5,324.5" style="stroke-width: 0.5; stroke-opacity: 1; stroke: rgb(239, 239, 255);"></path><path class="link" marker-end="url(#arrow)" d="M771.5,65.5, 914.5,364.5" style="stroke-width: 0.5; stroke-opacity: 1; stroke: rgb(255, 16, 16);"></path><path class="link" marker-end="url(#arrow)" d="M771.5,139.5, 914.5,364.5" style="stroke-width: 0.5; stroke-opacity: 1; stroke: rgb(255, 153, 153);"></path><path class="link" marker-end="url(#arrow)" d="M771.5,213.5, 914.5,364.5" style="stroke-width: 0.5; stroke-opacity: 1; stroke: rgb(7, 7, 255);"></path><path class="link" marker-end="url(#arrow)" d="M771.5,287.5, 914.5,364.5" style="stroke-width: 0.5; stroke-opacity: 1; stroke: rgb(255, 228, 228);"></path><path class="link" marker-end="url(#arrow)" d="M771.5,361.5, 914.5,364.5" style="stroke-width: 0.5; stroke-opacity: 1; stroke: rgb(255, 156, 156);"></path><path class="link" marker-end="url(#arrow)" d="M771.5,435.5, 914.5,364.5" style="stroke-width: 0.5; stroke-opacity: 1; stroke: rgb(239, 239, 255);"></path><path class="link" marker-end="url(#arrow)" d="M771.5,509.5, 914.5,364.5" style="stroke-width: 0.5; stroke-opacity: 1; stroke: rgb(255, 238, 238);"></path><path class="link" marker-end="url(#arrow)" d="M771.5,583.5, 914.5,364.5" style="stroke-width: 0.5; stroke-opacity: 1; stroke: rgb(169, 169, 255);"></path><path class="link" marker-end="url(#arrow)" d="M771.5,65.5, 914.5,404.5" style="stroke-width: 0.5; stroke-opacity: 1; stroke: rgb(255, 220, 220);"></path><path class="link" marker-end="url(#arrow)" d="M771.5,139.5, 914.5,404.5" style="stroke-width: 0.5; stroke-opacity: 1; stroke: rgb(255, 96, 96);"></path><path class="link" marker-end="url(#arrow)" d="M771.5,213.5, 914.5,404.5" style="stroke-width: 0.5; stroke-opacity: 1; stroke: rgb(255, 65, 65);"></path><path class="link" marker-end="url(#arrow)" d="M771.5,287.5, 914.5,404.5" style="stroke-width: 0.5; stroke-opacity: 1; stroke: rgb(46, 46, 255);"></path><path class="link" marker-end="url(#arrow)" d="M771.5,361.5, 914.5,404.5" style="stroke-width: 0.5; stroke-opacity: 1; stroke: rgb(142, 142, 255);"></path><path class="link" marker-end="url(#arrow)" d="M771.5,435.5, 914.5,404.5" style="stroke-width: 0.5; stroke-opacity: 1; stroke: rgb(255, 149, 149);"></path><path class="link" marker-end="url(#arrow)" d="M771.5,509.5, 914.5,404.5" style="stroke-width: 0.5; stroke-opacity: 1; stroke: rgb(255, 158, 158);"></path><path class="link" marker-end="url(#arrow)" d="M771.5,583.5, 914.5,404.5" style="stroke-width: 0.5; stroke-opacity: 1; stroke: rgb(255, 63, 63);"></path><circle r="10" class="node" id="0_0" cx="485.5" cy="-225.5" style="fill: rgb(255, 255, 255); stroke: rgb(51, 51, 51);"></circle><circle r="10" class="node" id="0_1" cx="485.5" cy="-125.5" style="fill: rgb(255, 255, 255); stroke: rgb(51, 51, 51);"></circle><circle r="10" class="node" id="0_2" cx="485.5" cy="-25.5" style="fill: rgb(255, 255, 255); stroke: rgb(51, 51, 51);"></circle><circle r="10" class="node" id="0_3" cx="485.5" cy="74.5" style="fill: rgb(255, 255, 255); stroke: rgb(51, 51, 51);"></circle><circle r="10" class="node" id="0_4" cx="485.5" cy="174.5" style="fill: rgb(255, 255, 255); stroke: rgb(51, 51, 51);"></circle><circle r="10" class="node" id="0_5" cx="485.5" cy="274.5" style="fill: rgb(255, 255, 255); stroke: rgb(51, 51, 51);"></circle><circle r="10" class="node" id="0_6" cx="485.5" cy="374.5" style="fill: rgb(255, 255, 255); stroke: rgb(51, 51, 51);"></circle><circle r="10" class="node" id="0_7" cx="485.5" cy="474.5" style="fill: rgb(255, 255, 255); stroke: rgb(51, 51, 51);"></circle><circle r="10" class="node" id="0_8" cx="485.5" cy="574.5" style="fill: rgb(255, 255, 255); stroke: rgb(51, 51, 51);"></circle><circle r="10" class="node" id="0_9" cx="485.5" cy="674.5" style="fill: rgb(255, 255, 255); stroke: rgb(51, 51, 51);"></circle><circle r="10" class="node" id="0_10" cx="485.5" cy="774.5" style="fill: rgb(255, 255, 255); stroke: rgb(51, 51, 51);"></circle><circle r="10" class="node" id="0_11" cx="485.5" cy="874.5" style="fill: rgb(255, 255, 255); stroke: rgb(51, 51, 51);"></circle><circle r="10" class="node" id="1_0" cx="628.5" cy="-55.5" style="fill: rgb(255, 255, 255); stroke: rgb(51, 51, 51);"></circle><circle r="10" class="node" id="1_1" cx="628.5" cy="20.5" style="fill: rgb(255, 255, 255); stroke: rgb(51, 51, 51);"></circle><circle r="10" class="node" id="1_2" cx="628.5" cy="96.5" style="fill: rgb(255, 255, 255); stroke: rgb(51, 51, 51);"></circle><circle r="10" class="node" id="1_3" cx="628.5" cy="172.5" style="fill: rgb(255, 255, 255); stroke: rgb(51, 51, 51);"></circle><circle r="10" class="node" id="1_4" cx="628.5" cy="248.5" style="fill: rgb(255, 255, 255); stroke: rgb(51, 51, 51);"></circle><circle r="10" class="node" id="1_5" cx="628.5" cy="324.5" style="fill: rgb(255, 255, 255); stroke: rgb(51, 51, 51);"></circle><circle r="10" class="node" id="1_6" cx="628.5" cy="400.5" style="fill: rgb(255, 255, 255); stroke: rgb(51, 51, 51);"></circle><circle r="10" class="node" id="1_7" cx="628.5" cy="476.5" style="fill: rgb(255, 255, 255); stroke: rgb(51, 51, 51);"></circle><circle r="10" class="node" id="1_8" cx="628.5" cy="552.5" style="fill: rgb(255, 255, 255); stroke: rgb(51, 51, 51);"></circle><circle r="10" class="node" id="1_9" cx="628.5" cy="628.5" style="fill: rgb(255, 255, 255); stroke: rgb(51, 51, 51);"></circle><circle r="10" class="node" id="1_10" cx="628.5" cy="704.5" style="fill: rgb(255, 255, 255); stroke: rgb(51, 51, 51);"></circle><circle r="10" class="node" id="2_0" cx="771.5" cy="65.5" style="fill: rgb(255, 255, 255); stroke: rgb(51, 51, 51);"></circle><circle r="10" class="node" id="2_1" cx="771.5" cy="139.5" style="fill: rgb(255, 255, 255); stroke: rgb(51, 51, 51);"></circle><circle r="10" class="node" id="2_2" cx="771.5" cy="213.5" style="fill: rgb(255, 255, 255); stroke: rgb(51, 51, 51);"></circle><circle r="10" class="node" id="2_3" cx="771.5" cy="287.5" style="fill: rgb(255, 255, 255); stroke: rgb(51, 51, 51);"></circle><circle r="10" class="node" id="2_4" cx="771.5" cy="361.5" style="fill: rgb(255, 255, 255); stroke: rgb(51, 51, 51);"></circle><circle r="10" class="node" id="2_5" cx="771.5" cy="435.5" style="fill: rgb(255, 255, 255); stroke: rgb(51, 51, 51);"></circle><circle r="10" class="node" id="2_6" cx="771.5" cy="509.5" style="fill: rgb(255, 255, 255); stroke: rgb(51, 51, 51);"></circle><circle r="10" class="node" id="2_7" cx="771.5" cy="583.5" style="fill: rgb(255, 255, 255); stroke: rgb(51, 51, 51);"></circle><circle r="10" class="node" id="3_0" cx="914.5" cy="244.5" style="fill: rgb(255, 255, 255); stroke: rgb(51, 51, 51);"></circle><text class="text" dy=".35em" x="450.5" y="914.5" style="font-size: 12px;">Input Layer ∈ ℝ¹²</text><text class="text" dy=".35em" x="593.5" y="914.5" style="font-size: 12px;">Hidden Layer ∈ ℝ¹¹</text><text class="text" dy=".35em" x="736.5" y="914.5" style="font-size: 12px;">Hidden Layer ∈ ℝ⁸</text><text class="text" dy=".35em" x="879.5" y="914.5" style="font-size: 12px;">Output Layer ∈ ℝ⁵</text><circle r="10" class="node" id="3_1" cx="914.5" cy="284.5" style="fill: rgb(255, 255, 255); stroke: rgb(51, 51, 51);"></circle><circle r="10" class="node" id="3_2" cx="914.5" cy="324.5" style="fill: rgb(255, 255, 255); stroke: rgb(51, 51, 51);"></circle><circle r="10" class="node" id="3_3" cx="914.5" cy="364.5" style="fill: rgb(255, 255, 255); stroke: rgb(51, 51, 51);"></circle><circle r="10" class="node" id="3_4" cx="914.5" cy="404.5" style="fill: rgb(255, 255, 255); stroke: rgb(51, 51, 51);"></circle></g><defs><marker id="arrow" viewBox="0 -5 10 10" markerWidth="7" markerHeight="7" orient="auto" refX="40"><path d="M0,-5L10,0L0,5" style="stroke: rgb(80, 80, 80); fill: rgb(80, 80, 80);"></path></marker></defs></svg>